# xmcd CD database file
#
# Track frame offsets:
#	150
#	16230
#	34931
#	50926
#
# Disc length: 925 seconds
#
# Revision: 0
# Processed by: cddbd v1.5.1PL0 Copyright (c) Steve Scherf et al.
# Submitted via: CDex 1.51
#
DISCID=30039b04
DTITLE=小枝 - Romantic Chaser
DYEAR=2005
DGENRE=Vocal
TTITLE0=Romantic Chaser
TTITLE1=Everything's all right
TTITLE2=Romantic Chaser［off vocal］
TTITLE3=Everything's all right［off vocal］
EXTD=YEAR: 2005
EXTT0=
EXTT1=
EXTT2=
EXTT3=
PLAYORDER=
